<svg id="Group_137" data-name="Group 137" xmlns="http://www.w3.org/2000/svg" xmlns:xlink="http://www.w3.org/1999/xlink" width="171.889" height="28.886" viewBox="0 0 171.889 28.886">
  <defs>
    <clipPath id="clip-path">
      <rect id="Rectangle_23" data-name="Rectangle 23" width="28.886" height="28.886" fill="#fff"/>
    </clipPath>
  </defs>
  <g id="Mask_Group_3" data-name="Mask Group 3" clip-path="url(#clip-path)">
    <g id="linkedin">
      <g id="Group_25" data-name="Group 25" transform="translate(0 9.027)">
        <g id="Group_24" data-name="Group 24">
          <rect id="Rectangle_27" data-name="Rectangle 27" width="6.46" height="19.859" fill="#fff"/>
        </g>
      </g>
      <g id="Group_27" data-name="Group 27" transform="translate(9.027 9.027)">
        <g id="Group_26" data-name="Group 26">
          <path id="Path_8" data-name="Path 8" d="M33.778,18.983c-.069-.022-.134-.045-.206-.065s-.173-.036-.262-.051a5.789,5.789,0,0,0-1.159-.117,8.975,8.975,0,0,0-6.942,3.8v-3.8H18.75V38.609h6.46V27.777s4.882-6.8,6.942-1.805V38.609h6.458v-13.4A6.441,6.441,0,0,0,33.778,18.983Z" transform="translate(-18.75 -18.75)" fill="#fff"/>
        </g>
      </g>
      <g id="Group_29" data-name="Group 29">
        <g id="Group_28" data-name="Group 28">
          <circle id="Ellipse_1" data-name="Ellipse 1" cx="3.159" cy="3.159" r="3.159" fill="#fff"/>
        </g>
      </g>
    </g>
  </g>
  <g id="Mask_Group_4" data-name="Mask Group 4" transform="translate(47.668)" clip-path="url(#clip-path)">
    <g id="twitter" transform="translate(0 2.708)">
      <g id="Group_30" data-name="Group 30" transform="translate(0 0)">
        <path id="Path_9" data-name="Path 9" d="M28.886,8.4a12.347,12.347,0,0,1-3.412.935,5.889,5.889,0,0,0,2.605-3.273A11.835,11.835,0,0,1,24.324,7.5,5.922,5.922,0,0,0,14.08,11.548a6.1,6.1,0,0,0,.137,1.35A16.762,16.762,0,0,1,2.011,6.7a5.923,5.923,0,0,0,1.82,7.915,5.848,5.848,0,0,1-2.676-.729v.065A5.949,5.949,0,0,0,5.9,19.774a5.911,5.911,0,0,1-1.553.195,5.236,5.236,0,0,1-1.121-.1A5.978,5.978,0,0,0,8.76,23.993a11.9,11.9,0,0,1-7.343,2.526A11.092,11.092,0,0,1,0,26.437,16.672,16.672,0,0,0,9.085,29.1c10.9,0,16.855-9.027,16.855-16.851,0-.262-.009-.515-.022-.765A11.814,11.814,0,0,0,28.886,8.4Z" transform="translate(0 -5.625)" fill="#fff"/>
      </g>
    </g>
  </g>
  <g id="Mask_Group_5" data-name="Mask Group 5" transform="translate(95.335)" clip-path="url(#clip-path)">
    <g id="instagram-logo">
      <path id="Path_10" data-name="Path 10" d="M20.914,0H7.971A7.981,7.981,0,0,0,0,7.972V20.915a7.98,7.98,0,0,0,7.971,7.972H20.914a7.981,7.981,0,0,0,7.972-7.972V7.972A7.981,7.981,0,0,0,20.914,0Zm5.409,20.915a5.415,5.415,0,0,1-5.409,5.409H7.971a5.415,5.415,0,0,1-5.408-5.409V7.972A5.415,5.415,0,0,1,7.971,2.563H20.914a5.415,5.415,0,0,1,5.409,5.409V20.915Z" fill="#fff"/>
      <path id="Path_11" data-name="Path 11" d="M21.983,14.54a7.443,7.443,0,1,0,7.443,7.443A7.452,7.452,0,0,0,21.983,14.54Zm0,12.323a4.88,4.88,0,1,1,4.88-4.88A4.886,4.886,0,0,1,21.983,26.863Z" transform="translate(-7.54 -7.54)" fill="#fff"/>
      <path id="Path_12" data-name="Path 12" d="M44.084,10.026a1.878,1.878,0,1,0,1.329.55A1.887,1.887,0,0,0,44.084,10.026Z" transform="translate(-21.886 -5.199)" fill="#fff"/>
    </g>
  </g>
  <g id="Mask_Group_6" data-name="Mask Group 6" transform="translate(143.003)" clip-path="url(#clip-path)">
    <g id="telegram" transform="translate(0 1.868)">
      <path id="XMLID_497_" d="M.51,15.94l6.656,2.484,2.576,8.285a.784.784,0,0,0,1.244.375l3.71-3.025a1.107,1.107,0,0,1,1.349-.038l6.692,4.858a.784.784,0,0,0,1.229-.474l4.9-23.58a.785.785,0,0,0-1.05-.892L.5,14.472A.785.785,0,0,0,.51,15.94ZM9.327,17.1,22.336,9.09a.227.227,0,0,1,.274.359L11.873,19.428a2.225,2.225,0,0,0-.69,1.332l-.366,2.71a.336.336,0,0,1-.657.048L8.755,18.575A1.31,1.31,0,0,1,9.327,17.1Z" transform="translate(0 -3.88)" fill="#fff"/>
    </g>
  </g>
</svg>
